source = Hannibal Lecter Pentalogy Box Set HD-BRRip H264 5.1 ch-SecretMyth (Kingdom-Release) 

reencoder video 700kbps x264 insane  / audio 64kbps LC




Video
ID                               : 1
Format                           : AVC
Format/Info                      : Advanced Video Codec
Format profile                   : High@L5.0
Format settings, CABAC           : Yes
Format settings, ReFrames        : 16 frames
Codec ID                         : avc1
Codec ID/Info                    : Advanced Video Coding
Duration                         : 2h 11mn
Bit rate mode                    : Variable
Bit rate                         : 700 Kbps
Maximum bit rate                 : 6 394 Kbps
Width                            : 1 280 pixels
Height                           : 688 pixels
Display aspect ratio             : 1.860
Frame rate mode                  : Constant
Frame rate                       : 24.000 fps
Color space                      : YUV
Chroma subsampling               : 4:2:0
Bit depth                        : 8 bits
Scan type                        : Progressive
Bits/(Pixel*Frame)               : 0.033
Stream size                      : 657 MiB (91%)
Title                            : 2
Writing library                  : x264 core 116 r2074 2641b9e
Encoding settings                : cabac=1 / ref=16 / deblock=1:-1:-1 / analyse=0x3:0x133 / me=tesa / subme=8 / psy=1 / psy_rd=1.00:0.00 / mixed_ref=1 / me_range=32 / chroma_me=1 / trellis=2 / 8x8dct=1 / cqm=0 / deadzone=21,11 / fast_pskip=1 / chroma_qp_offset=-2 / threads=12 / sliced_threads=0 / nr=0 / decimate=0 / interlaced=0 / bluray_compat=0 / constrained_intra=0 / bframes=4 / b_pyramid=2 / b_adapt=2 / b_bias=0 / direct=3 / weightb=1 / open_gop=0 / weightp=2 / keyint=250 / keyint_min=24 / scenecut=40 / intra_refresh=0 / rc_lookahead=40 / rc=2pass / mbtree=1 / bitrate=700 / ratetol=1.0 / qcomp=0.60 / qpmin=10 / qpmax=51 / qpstep=4 / cplxblur=20.0 / qblur=0.5 / ip_ratio=1.40 / aq=1:1.00
Encoded date                     : UTC 2012-02-07 00:10:13
Tagged date                      : UTC 2012-02-07 00:10:58

Audio
ID                               : 2
Format                           : AAC
Format/Info                      : Advanced Audio Codec
Format version                   : Version 4
Format profile                   : LC
Format settings, SBR             : No
Codec ID                         : 40
Duration                         : 2h 11mn
Bit rate mode                    : Variable
Bit rate                         : 63.9 Kbps
Maximum bit rate                 : 112 Kbps
Channel(s)                       : 2 channels
Channel positions                : Front: L R
Sampling rate                    : 48.0 KHz
Stream size                      : 60.1 MiB (8%)
Encoded date                     : UTC 2012-02-07 00:10:55
Tagged date                      : UTC 2012-02-07 00:10:58
